<svg version="1.1" id="Layer_1" xmlns="http://www.w3.org/2000/svg" xmlns:xlink="http://www.w3.org/1999/xlink" x="0px" y="0px"
	 width="100%" viewBox="0 0 808 632" enable-background="new 0 0 808 632" xml:space="preserve">
<path fill="#FFFAF2" opacity="1.000000" stroke="none" 
	d="
M750.000000,633.000000 
	C500.000000,633.000000 250.500000,633.000000 1.000000,633.000000 
	C1.000000,422.333344 1.000000,211.666672 1.000000,1.000000 
	C270.333344,1.000000 539.666687,1.000000 809.000000,1.000000 
	C809.000000,211.666672 809.000000,422.333344 809.000000,633.000000 
	C789.500000,633.000000 770.000000,633.000000 750.000000,633.000000 
M157.124313,278.699310 
	C155.760849,279.640167 154.397400,280.581055 151.632568,282.488953 
	C160.234314,290.450592 167.721817,297.380951 175.209320,304.311279 
	C174.964035,304.677429 174.718765,305.043579 174.473480,305.409729 
	C159.805588,303.314056 145.137695,301.218384 130.193359,299.083221 
	C128.733139,305.147980 127.388100,310.734314 125.992599,316.530243 
	C138.550919,321.430298 150.690018,326.166779 162.829132,330.903259 
	C162.790497,331.234467 162.751862,331.565704 162.713242,331.896942 
	C154.511215,334.141602 146.309204,336.386292 137.677399,338.748566 
	C139.124741,344.304840 140.440155,349.354614 141.767227,354.449097 
	C160.560257,352.752472 178.757248,351.153381 196.944275,349.447723 
	C204.967712,348.695221 204.751694,348.566833 205.983047,340.128448 
	C206.587082,335.988983 205.441849,333.768890 201.506134,332.241852 
	C195.733475,330.002075 190.170319,327.222382 184.517899,324.672729 
	C184.605698,324.353058 184.693497,324.033386 184.781281,323.713715 
	C192.300385,323.713715 199.819489,323.713715 207.549637,323.713715 
	C209.455521,308.138611 211.317719,292.920319 213.206528,277.484650 
	C207.038574,276.473297 201.717941,275.600861 196.063507,274.673706 
	C194.951920,282.037079 193.947662,288.689575 192.673950,297.126953 
	C183.677872,287.391785 175.597244,278.647308 167.333603,269.704742 
	C163.350372,273.196747 160.496124,275.699005 157.124313,278.699310 
M630.884399,335.520050 
	C634.170654,341.901306 639.202393,346.378540 646.094910,348.281128 
	C654.119080,350.496124 661.738770,349.622803 668.464783,342.586334 
	C668.625549,349.493866 666.317261,353.909302 661.143372,356.207733 
	C652.462585,360.064056 645.087158,356.880737 638.405945,350.749481 
	C635.610779,354.121765 633.006287,357.263947 630.469482,360.324554 
	C637.458008,368.910400 650.351990,372.400269 663.288147,369.277771 
	C672.204285,367.125610 678.551147,361.799286 680.887634,352.766937 
	C681.950439,348.658203 682.108276,344.240051 682.152283,339.956879 
	C682.298828,325.692535 682.207764,311.425720 682.207764,297.077728 
	C677.563843,297.077728 673.441467,297.077728 669.219971,297.077728 
	C668.932617,298.764008 668.672974,300.287659 668.309387,302.421417 
	C661.904968,295.093964 654.228943,294.315369 646.104431,296.673615 
	C630.451050,301.217316 623.496582,318.537323 630.884399,335.520050 
M450.450928,347.960449 
	C454.746277,348.408020 459.041626,348.855591 463.509491,349.321136 
	C463.764587,346.589233 463.936127,344.751984 464.140961,342.558228 
	C474.415771,352.464600 488.100128,352.573273 497.779297,343.254456 
	C508.259827,333.164154 509.031769,315.847046 499.494171,304.785187 
	C490.090546,293.878723 476.551758,292.896149 464.311951,302.753876 
	C464.311951,293.619690 464.311951,284.940582 464.311951,276.271423 
	C459.323120,276.271423 454.938416,276.271423 450.316284,276.271423 
	C450.316284,300.109344 450.316284,323.576324 450.450928,347.960449 
M565.214111,304.630096 
	C565.214111,302.159119 565.214111,299.688171 565.214111,297.168457 
	C560.590210,297.168457 556.335876,297.168457 552.096375,297.168457 
	C551.985718,299.491699 551.888245,301.537140 551.752930,304.377350 
	C545.707458,295.563202 537.825623,294.519562 529.238464,296.747803 
	C516.613281,300.023926 509.490631,310.650726 509.833527,325.003937 
	C510.074646,335.096832 516.750244,345.360443 526.255554,348.513916 
	C535.688599,351.643463 544.939087,351.678619 551.900940,341.558899 
	C552.044434,344.509613 552.144043,346.558441 552.248352,348.702454 
	C556.726868,348.702454 560.799561,348.702454 565.214111,348.702454 
	C565.214111,334.171387 565.214111,319.883698 565.214111,304.630096 
M302.562775,348.106232 
	C312.387970,351.585236 321.588806,351.655212 329.257874,342.320587 
	C329.502319,344.994080 329.665314,346.777039 329.841370,348.702759 
	C334.154816,348.702759 338.227966,348.702759 342.548828,348.702759 
	C342.548828,331.391602 342.548828,314.333130 342.548828,297.121704 
	C338.025391,297.121704 333.766632,297.121704 329.362457,297.121704 
	C329.187622,299.169098 329.031708,300.994751 328.835358,303.294037 
	C318.903290,291.165131 301.520813,295.703125 294.167267,304.233673 
	C282.199219,318.117279 285.657654,338.327637 302.562775,348.106232 
M443.024200,320.559723 
	C443.021545,318.561737 443.097443,316.560028 443.002960,314.566406 
	C442.544312,304.890259 435.216187,296.816711 426.161499,295.946198 
	C419.135742,295.270782 412.731720,296.461151 407.373169,303.447693 
	C407.373169,293.461823 407.373169,284.870117 407.373169,276.180664 
	C402.732574,276.180664 398.502380,276.180664 394.275635,276.180664 
	C394.275635,300.506866 394.275635,324.561432 394.275635,348.768951 
	C398.659454,348.768951 402.762756,348.768951 407.343048,348.768951 
	C407.343048,344.965118 407.282318,341.328674 407.356140,337.694946 
	C407.494446,330.884674 407.336548,324.039246 408.000793,317.277100 
	C408.651215,310.655884 412.856171,307.396088 419.028625,307.663177 
	C425.403809,307.939026 429.258148,311.737213 429.475220,318.583649 
	C429.712524,326.068726 429.538696,333.566864 429.543152,341.059296 
	C429.544647,343.627258 429.543396,346.195221 429.543396,348.678833 
	C434.476654,348.678833 438.571442,348.678833 443.024200,348.678833 
	C443.024200,339.459808 443.024200,330.501404 443.024200,320.559723 
M573.243896,308.524902 
	C573.243896,321.927094 573.243896,335.329285 573.243896,348.610443 
	C578.274597,348.610443 582.512146,348.610443 586.849365,348.610443 
	C586.904175,347.453491 586.974243,346.635620 586.976807,345.817566 
	C587.005920,336.497589 586.857666,327.173218 587.105164,317.859222 
	C587.269470,311.677216 591.246094,307.939850 597.177429,307.674530 
	C603.393677,307.396454 607.531860,310.532166 608.286316,316.588135 
	C608.756897,320.365448 608.672119,324.220642 608.704102,328.042023 
	C608.761841,334.947021 608.720459,341.852814 608.720459,348.770874 
	C613.579163,348.770874 617.704712,348.770874 621.969788,348.770874 
	C621.969788,336.467987 622.590149,324.304749 621.746521,312.243896 
	C621.205322,304.506622 616.324463,298.680389 608.358215,296.609924 
	C600.366028,294.532684 592.985168,295.653717 586.925415,302.750061 
	C586.731750,300.420715 586.599976,298.835236 586.468262,297.251343 
	C581.927856,297.251343 577.721924,297.251343 573.606628,297.251343 
	C573.434937,297.925842 573.289734,298.236389 573.286804,298.548279 
	C573.258850,301.543610 573.254761,304.539185 573.243896,308.524902 
M374.518311,331.243835 
	C375.684540,336.729980 374.089539,339.519104 368.958588,338.847076 
	C364.332458,338.241180 359.932220,335.910828 354.660828,334.071899 
	C352.806976,335.791931 349.920013,338.470520 347.019135,341.161987 
	C355.368958,349.203308 365.666595,352.025146 375.741241,349.243011 
	C382.953125,347.251373 388.375824,341.178223 388.838623,334.574585 
	C389.348663,327.296326 386.078949,322.224030 378.332245,318.871246 
	C375.160919,317.498688 371.756195,316.669800 368.470001,315.556976 
	C365.789825,314.649353 362.428864,313.905853 363.444916,310.088806 
	C364.462494,306.265839 368.038452,305.674133 371.147247,306.663818 
	C374.128662,307.612915 376.739777,309.725281 379.700043,311.434052 
	C382.485046,309.310608 385.512146,307.002563 388.530609,304.701080 
	C382.505768,295.303741 370.907257,294.323364 362.246613,296.545380 
	C354.427826,298.551422 350.014374,304.170197 349.966949,311.432098 
	C349.915741,319.269928 353.596283,323.900299 361.830353,326.521149 
	C365.904602,327.817932 369.933350,329.257690 374.518311,331.243835 
M260.166077,308.669647 
	C261.130951,307.902832 262.831970,307.217865 262.927979,306.354462 
	C263.268341,303.293335 263.060669,300.171295 263.060669,296.781982 
	C259.304169,296.781982 256.180481,296.781982 253.100632,296.781982 
	C252.171646,289.012207 252.970291,288.114105 261.643250,286.806335 
	C261.643250,283.225006 261.643250,279.656403 261.643250,274.695435 
	C255.986969,276.140045 250.476913,276.529633 246.042999,278.917480 
	C239.336304,282.529297 238.755783,289.827667 238.891830,296.696838 
	C236.149338,296.858093 234.048813,296.981598 231.964203,297.104156 
	C231.964203,301.048126 231.964203,304.666168 231.964203,308.464508 
	C234.317352,308.606079 236.434616,308.733459 239.115738,308.894775 
	C239.115738,322.216156 239.115738,335.449280 239.115738,348.769897 
	C243.803543,348.769897 247.917267,348.769897 252.657349,348.769897 
	C252.657349,335.376373 252.657349,322.156525 252.657349,308.670746 
	C255.260971,308.670746 257.239136,308.670746 260.166077,308.669647 
M267.773285,281.549957 
	C267.773285,303.920319 267.773285,326.290680 267.773285,348.650421 
	C272.545044,348.650421 276.609131,348.650421 280.757202,348.650421 
	C280.757202,324.327667 280.757202,300.294983 280.757202,276.087982 
	C276.443817,276.087982 272.362183,276.087982 267.773315,276.087982 
	C267.773315,277.688202 267.773315,279.124084 267.773285,281.549957 
z"/>
<path fill="#F16363" opacity="1.000000" stroke="none" 
	d="
M157.383087,278.450287 
	C160.496124,275.699005 163.350372,273.196747 167.333603,269.704742 
	C175.597244,278.647308 183.677872,287.391785 192.673950,297.126953 
	C193.947662,288.689575 194.951920,282.037079 196.063507,274.673706 
	C201.717941,275.600861 207.038574,276.473297 213.206528,277.484650 
	C211.317719,292.920319 209.455521,308.138611 207.549637,323.713715 
	C199.819489,323.713715 192.300385,323.713715 184.781281,323.713715 
	C184.693497,324.033386 184.605698,324.353058 184.517899,324.672729 
	C190.170319,327.222382 195.733475,330.002075 201.506134,332.241852 
	C205.441849,333.768890 206.587082,335.988983 205.983047,340.128448 
	C204.751694,348.566833 204.967712,348.695221 196.944275,349.447723 
	C178.757248,351.153381 160.560257,352.752472 141.767227,354.449097 
	C140.440155,349.354614 139.124741,344.304840 137.677399,338.748566 
	C146.309204,336.386292 154.511215,334.141602 162.713242,331.896942 
	C162.751862,331.565704 162.790497,331.234467 162.829132,330.903259 
	C150.690018,326.166779 138.550919,321.430298 125.992599,316.530243 
	C127.388100,310.734314 128.733139,305.147980 130.193359,299.083221 
	C145.137695,301.218384 159.805588,303.314056 174.473480,305.409729 
	C174.718765,305.043579 174.964035,304.677429 175.209320,304.311279 
	C167.721817,297.380951 160.234314,290.450592 151.632568,282.488953 
	C154.397400,280.581055 155.760849,279.640167 157.383087,278.450287 
z"/>
<path fill="#040404" opacity="1.000000" stroke="none" 
	d="
M630.716248,335.180237 
	C623.496582,318.537323 630.451050,301.217316 646.104431,296.673615 
	C654.228943,294.315369 661.904968,295.093964 668.309387,302.421417 
	C668.672974,300.287659 668.932617,298.764008 669.219971,297.077728 
	C673.441467,297.077728 677.563843,297.077728 682.207764,297.077728 
	C682.207764,311.425720 682.298828,325.692535 682.152283,339.956879 
	C682.108276,344.240051 681.950439,348.658203 680.887634,352.766937 
	C678.551147,361.799286 672.204285,367.125610 663.288147,369.277771 
	C650.351990,372.400269 637.458008,368.910400 630.469482,360.324554 
	C633.006287,357.263947 635.610779,354.121765 638.405945,350.749481 
	C645.087158,356.880737 652.462585,360.064056 661.143372,356.207733 
	C666.317261,353.909302 668.625549,349.493866 668.464783,342.586334 
	C661.738770,349.622803 654.119080,350.496124 646.094910,348.281128 
	C639.202393,346.378540 634.170654,341.901306 630.716248,335.180237 
M648.999939,309.069183 
	C647.793701,309.933594 646.384338,310.615570 645.415894,311.693573 
	C640.854309,316.771332 640.141602,322.633240 642.656555,328.810394 
	C644.792786,334.057220 648.959045,336.710144 654.608582,336.967163 
	C660.674194,337.243073 665.469421,334.824829 667.816040,329.226990 
	C670.250549,323.419373 670.084961,317.433197 665.731506,312.371582 
	C661.379883,307.312195 655.702820,307.226807 648.999939,309.069183 
z"/>
<path fill="#070707" opacity="1.000000" stroke="none" 
	d="
M450.383606,347.501892 
	C450.316284,323.576324 450.316284,300.109344 450.316284,276.271423 
	C454.938416,276.271423 459.323120,276.271423 464.311951,276.271423 
	C464.311951,284.940582 464.311951,293.619690 464.311951,302.753876 
	C476.551758,292.896149 490.090546,293.878723 499.494171,304.785187 
	C509.031769,315.847046 508.259827,333.164154 497.779297,343.254456 
	C488.100128,352.573273 474.415771,352.464600 464.140961,342.558228 
	C463.936127,344.751984 463.764587,346.589233 463.509491,349.321136 
	C459.041626,348.855591 454.746277,348.408020 450.383606,347.501892 
M468.243744,334.273285 
	C468.775360,334.670837 469.286163,335.100464 469.841797,335.460968 
	C475.826630,339.344177 483.289886,338.787811 488.198578,334.104218 
	C493.115753,329.412506 494.154663,321.659851 490.721222,315.279572 
	C487.531616,309.352325 481.120392,306.808746 474.107330,308.688202 
	C463.636688,311.494324 460.522125,323.675262 468.243744,334.273285 
z"/>
<path fill="#040404" opacity="1.000000" stroke="none" 
	d="
M565.214111,305.113037 
	C565.214111,319.883698 565.214111,334.171387 565.214111,348.702454 
	C560.799561,348.702454 556.726868,348.702454 552.248352,348.702454 
	C552.144043,346.558441 552.044434,344.509613 551.900940,341.558899 
	C544.939087,351.678619 535.688599,351.643463 526.255554,348.513916 
	C516.750244,345.360443 510.074646,335.096832 509.833527,325.003937 
	C509.490631,310.650726 516.613281,300.023926 529.238464,296.747803 
	C537.825623,294.519562 545.707458,295.563202 551.752930,304.377350 
	C551.888245,301.537140 551.985718,299.491699 552.096375,297.168457 
	C556.335876,297.168457 560.590210,297.168457 565.214111,297.168457 
	C565.214111,299.688171 565.214111,302.159119 565.214111,305.113037 
M540.814758,337.716095 
	C548.195312,335.455780 552.018616,330.563782 552.082825,323.298248 
	C552.142456,316.548981 548.409180,310.799347 542.728088,308.891144 
	C536.708313,306.869202 530.539490,308.246490 526.843140,312.800018 
	C522.598999,318.028198 521.931274,323.855377 524.800049,329.996582 
	C527.451294,335.672302 532.433533,338.220215 540.814758,337.716095 
z"/>
<path fill="#070706" opacity="1.000000" stroke="none" 
	d="
M302.218231,347.938538 
	C285.657654,338.327637 282.199219,318.117279 294.167267,304.233673 
	C301.520813,295.703125 318.903290,291.165131 328.835358,303.294037 
	C329.031708,300.994751 329.187622,299.169098 329.362457,297.121704 
	C333.766632,297.121704 338.025391,297.121704 342.548828,297.121704 
	C342.548828,314.333130 342.548828,331.391602 342.548828,348.702759 
	C338.227966,348.702759 334.154816,348.702759 329.841370,348.702759 
	C329.665314,346.777039 329.502319,344.994080 329.257874,342.320587 
	C321.588806,351.655212 312.387970,351.585236 302.218231,347.938538 
M300.824707,325.145172 
	C302.429291,332.902893 307.052643,337.463348 313.824646,337.968384 
	C320.393097,338.458221 326.218140,334.951904 328.468323,329.153748 
	C331.037811,322.532867 329.127502,315.065186 323.590179,310.824402 
	C318.929138,307.254730 313.634674,306.990112 308.607727,309.507690 
	C302.726807,312.452942 300.327423,317.750427 300.824707,325.145172 
z"/>
<path fill="#020202" opacity="1.000000" stroke="none" 
	d="
M443.024200,321.051361 
	C443.024200,330.501404 443.024200,339.459808 443.024200,348.678833 
	C438.571442,348.678833 434.476654,348.678833 429.543396,348.678833 
	C429.543396,346.195221 429.544647,343.627258 429.543152,341.059296 
	C429.538696,333.566864 429.712524,326.068726 429.475220,318.583649 
	C429.258148,311.737213 425.403809,307.939026 419.028625,307.663177 
	C412.856171,307.396088 408.651215,310.655884 408.000793,317.277100 
	C407.336548,324.039246 407.494446,330.884674 407.356140,337.694946 
	C407.282318,341.328674 407.343048,344.965118 407.343048,348.768951 
	C402.762756,348.768951 398.659454,348.768951 394.275635,348.768951 
	C394.275635,324.561432 394.275635,300.506866 394.275635,276.180664 
	C398.502380,276.180664 402.732574,276.180664 407.373169,276.180664 
	C407.373169,284.870117 407.373169,293.461823 407.373169,303.447693 
	C412.731720,296.461151 419.135742,295.270782 426.161499,295.946198 
	C435.216187,296.816711 442.544312,304.890259 443.002960,314.566406 
	C443.097443,316.560028 443.021545,318.561737 443.024200,321.051361 
z"/>
<path fill="#070706" opacity="1.000000" stroke="none" 
	d="
M573.243896,308.029785 
	C573.254761,304.539185 573.258850,301.543610 573.286804,298.548279 
	C573.289734,298.236389 573.434937,297.925842 573.606628,297.251343 
	C577.721924,297.251343 581.927856,297.251343 586.468262,297.251343 
	C586.599976,298.835236 586.731750,300.420715 586.925415,302.750061 
	C592.985168,295.653717 600.366028,294.532684 608.358215,296.609924 
	C616.324463,298.680389 621.205322,304.506622 621.746521,312.243896 
	C622.590149,324.304749 621.969788,336.467987 621.969788,348.770874 
	C617.704712,348.770874 613.579163,348.770874 608.720459,348.770874 
	C608.720459,341.852814 608.761841,334.947021 608.704102,328.042023 
	C608.672119,324.220642 608.756897,320.365448 608.286316,316.588135 
	C607.531860,310.532166 603.393677,307.396454 597.177429,307.674530 
	C591.246094,307.939850 587.269470,311.677216 587.105164,317.859222 
	C586.857666,327.173218 587.005920,336.497589 586.976807,345.817566 
	C586.974243,346.635620 586.904175,347.453491 586.849365,348.610443 
	C582.512146,348.610443 578.274597,348.610443 573.243896,348.610443 
	C573.243896,335.329285 573.243896,321.927094 573.243896,308.029785 
z"/>
<path fill="#060505" opacity="1.000000" stroke="none" 
	d="
M374.250488,330.938293 
	C369.933350,329.257690 365.904602,327.817932 361.830353,326.521149 
	C353.596283,323.900299 349.915741,319.269928 349.966949,311.432098 
	C350.014374,304.170197 354.427826,298.551422 362.246613,296.545380 
	C370.907257,294.323364 382.505768,295.303741 388.530609,304.701080 
	C385.512146,307.002563 382.485046,309.310608 379.700043,311.434052 
	C376.739777,309.725281 374.128662,307.612915 371.147247,306.663818 
	C368.038452,305.674133 364.462494,306.265839 363.444916,310.088806 
	C362.428864,313.905853 365.789825,314.649353 368.470001,315.556976 
	C371.756195,316.669800 375.160919,317.498688 378.332245,318.871246 
	C386.078949,322.224030 389.348663,327.296326 388.838623,334.574585 
	C388.375824,341.178223 382.953125,347.251373 375.741241,349.243011 
	C365.666595,352.025146 355.368958,349.203308 347.019135,341.161987 
	C349.920013,338.470520 352.806976,335.791931 354.660828,334.071899 
	C359.932220,335.910828 364.332458,338.241180 368.958588,338.847076 
	C374.089539,339.519104 375.684540,336.729980 374.250488,330.938293 
z"/>
<path fill="#090908" opacity="1.000000" stroke="none" 
	d="
M259.691681,308.670197 
	C257.239136,308.670746 255.260971,308.670746 252.657349,308.670746 
	C252.657349,322.156525 252.657349,335.376373 252.657349,348.769897 
	C247.917267,348.769897 243.803543,348.769897 239.115738,348.769897 
	C239.115738,335.449280 239.115738,322.216156 239.115738,308.894775 
	C236.434616,308.733459 234.317352,308.606079 231.964203,308.464508 
	C231.964203,304.666168 231.964203,301.048126 231.964203,297.104156 
	C234.048813,296.981598 236.149338,296.858093 238.891830,296.696838 
	C238.755783,289.827667 239.336304,282.529297 246.042999,278.917480 
	C250.476913,276.529633 255.986969,276.140045 261.643250,274.695435 
	C261.643250,279.656403 261.643250,283.225006 261.643250,286.806335 
	C252.970291,288.114105 252.171646,289.012207 253.100632,296.781982 
	C256.180481,296.781982 259.304169,296.781982 263.060669,296.781982 
	C263.060669,300.171295 263.268341,303.293335 262.927979,306.354462 
	C262.831970,307.217865 261.130951,307.902832 259.691681,308.670197 
z"/>
<path fill="#010101" opacity="1.000000" stroke="none" 
	d="
M267.773315,281.054993 
	C267.773315,279.124084 267.773315,277.688202 267.773315,276.087982 
	C272.362183,276.087982 276.443817,276.087982 280.757202,276.087982 
	C280.757202,300.294983 280.757202,324.327667 280.757202,348.650421 
	C276.609131,348.650421 272.545044,348.650421 267.773285,348.650421 
	C267.773285,326.290680 267.773285,303.920319 267.773315,281.054993 
z"/>
<path fill="#FBF6EE" opacity="1.000000" stroke="none" 
	d="
M649.379150,308.951019 
	C655.702820,307.226807 661.379883,307.312195 665.731506,312.371582 
	C670.084961,317.433197 670.250549,323.419373 667.816040,329.226990 
	C665.469421,334.824829 660.674194,337.243073 654.608582,336.967163 
	C648.959045,336.710144 644.792786,334.057220 642.656555,328.810394 
	C640.141602,322.633240 640.854309,316.771332 645.415894,311.693573 
	C646.384338,310.615570 647.793701,309.933594 649.379150,308.951019 
z"/>
<path fill="#F9F4ED" opacity="1.000000" stroke="none" 
	d="
M467.970825,334.014099 
	C460.522125,323.675262 463.636688,311.494324 474.107330,308.688202 
	C481.120392,306.808746 487.531616,309.352325 490.721222,315.279572 
	C494.154663,321.659851 493.115753,329.412506 488.198578,334.104218 
	C483.289886,338.787811 475.826630,339.344177 469.841797,335.460968 
	C469.286163,335.100464 468.775360,334.670837 467.970825,334.014099 
z"/>
<path fill="#FBF6EE" opacity="1.000000" stroke="none" 
	d="
M540.403931,337.776672 
	C532.433533,338.220215 527.451294,335.672302 524.800049,329.996582 
	C521.931274,323.855377 522.598999,318.028198 526.843140,312.800018 
	C530.539490,308.246490 536.708313,306.869202 542.728088,308.891144 
	C548.409180,310.799347 552.142456,316.548981 552.082825,323.298248 
	C552.018616,330.563782 548.195312,335.455780 540.403931,337.776672 
z"/>
<path fill="#FBF6EE" opacity="1.000000" stroke="none" 
	d="
M300.755341,324.716522 
	C300.327423,317.750427 302.726807,312.452942 308.607727,309.507690 
	C313.634674,306.990112 318.929138,307.254730 323.590179,310.824402 
	C329.127502,315.065186 331.037811,322.532867 328.468323,329.153748 
	C326.218140,334.951904 320.393097,338.458221 313.824646,337.968384 
	C307.052643,337.463348 302.429291,332.902893 300.755341,324.716522 
z"/>
</svg>