<svg xmlns="http://www.w3.org/2000/svg" xmlns:xlink="http://www.w3.org/1999/xlink" width="808" zoomAndPan="magnify" viewBox="0 0 606 473.999983" height="632" preserveAspectRatio="xMidYMid meet" version="1.0"><defs><g/><clipPath id="ebb8f0b205"><rect x="0" width="251" y="0" height="110"/></clipPath></defs><rect x="-60.6" width="727.2" fill="#ffffff" y="-47.399998" height="568.79998" fill-opacity="1"/><rect x="-60.6" width="727.2" fill="#6b46c1" y="-47.399998" height="568.79998" fill-opacity="1"/><g transform="matrix(1, 0, 0, 1, 178, 182)"><g clip-path="url(#ebb8f0b205)"><g fill="#ffffff" fill-opacity="1"><g transform="translate(0.567497, 84.543707)"><g><path d="M 57.84375 -53.4375 C 62.09375 -60 67.578125 -63.28125 74.296875 -63.28125 C 78.617188 -63.28125 82.398438 -62.410156 85.640625 -60.671875 C 88.890625 -58.929688 91.382812 -56.515625 93.125 -53.421875 C 94.863281 -50.335938 95.734375 -46.863281 95.734375 -43 L 95.734375 0 L 79.515625 0 L 79.515625 -37.90625 C 79.515625 -41.914062 78.703125 -44.867188 77.078125 -46.765625 C 75.453125 -48.660156 73.289062 -49.609375 70.59375 -49.609375 C 66.726562 -49.609375 63.941406 -48.46875 62.234375 -46.1875 C 60.535156 -43.90625 59.6875 -40.875 59.6875 -37.09375 L 59.6875 0 L 43.46875 0 L 43.46875 -38.25 C 43.46875 -42.34375 42.675781 -45.257812 41.09375 -47 C 39.507812 -48.738281 37.054688 -49.609375 33.734375 -49.609375 C 30.410156 -49.609375 27.894531 -48.582031 26.1875 -46.53125 C 24.488281 -44.488281 23.640625 -41.648438 23.640625 -38.015625 L 23.640625 0 L 7.421875 0 L 7.421875 -61.65625 L 22.953125 -61.65625 L 22.953125 -52.625 L 23.1875 -52.625 C 26.8125 -59.726562 32.644531 -63.28125 40.6875 -63.28125 C 44.625 -63.28125 47.90625 -62.566406 50.53125 -61.140625 C 53.15625 -59.710938 55.59375 -57.144531 57.84375 -53.4375 Z M 57.84375 -53.4375 "/></g></g></g><g fill="#ffffff" fill-opacity="1"><g transform="translate(101.287546, 84.543707)"><g><path d="M 34.421875 -12.046875 C 38.128906 -12.046875 41.140625 -13.300781 43.453125 -15.8125 C 45.773438 -18.332031 46.9375 -21.640625 46.9375 -25.734375 L 46.9375 -61.65625 L 63.171875 -61.65625 L 63.171875 0 L 47.640625 0 L 47.640625 -8.6875 L 47.40625 -8.6875 C 43.382812 -1.8125 37.125 1.625 28.625 1.625 C 21.976562 1.625 16.820312 -0.34375 13.15625 -4.28125 C 9.488281 -8.226562 7.65625 -13.675781 7.65625 -20.625 L 7.65625 -61.65625 L 23.875 -61.65625 L 23.875 -23.0625 C 23.875 -19.507812 24.757812 -16.785156 26.53125 -14.890625 C 28.3125 -12.992188 30.941406 -12.046875 34.421875 -12.046875 Z M 34.421875 -12.046875 "/></g></g></g><g fill="#ffffff" fill-opacity="1"><g transform="translate(172.104544, 84.543707)"><g><path d="M 43.234375 -63.046875 L 43.234375 -46.59375 C 41.992188 -46.75 40.523438 -46.828125 38.828125 -46.828125 C 28.703125 -46.828125 23.640625 -42.035156 23.640625 -32.453125 L 23.640625 0 L 7.421875 0 L 7.421875 -61.65625 L 22.953125 -61.65625 L 22.953125 -51 L 23.1875 -51 C 25.5 -55.5625 27.96875 -58.75 30.59375 -60.5625 C 33.226562 -62.375 36.398438 -63.28125 40.109375 -63.28125 C 40.492188 -63.28125 41.535156 -63.203125 43.234375 -63.046875 Z M 43.234375 -63.046875 "/></g></g></g><g fill="#ffffff" fill-opacity="1"><g transform="translate(217.190983, 84.543707)"><g><path d="M 8 0 L 8 -83.21875 L 24.21875 -83.21875 L 24.21875 0 Z M 8 0 "/></g></g></g></g></g></svg>