<svg xmlns="http://www.w3.org/2000/svg" xmlns:xlink="http://www.w3.org/1999/xlink" width="808" zoomAndPan="magnify" viewBox="0 0 606 473.999983" height="632" preserveAspectRatio="xMidYMid meet" version="1.0"><defs><g/></defs><rect x="-60.6" width="727.2" fill="#ffffff" y="-47.399998" height="568.79998" fill-opacity="1"/><rect x="-60.6" width="727.2" fill="#091f40" y="-47.399998" height="568.79998" fill-opacity="1"/><g fill="#b9a48d" fill-opacity="1"><g transform="translate(89.545902, 254.81248)"><g><path d="M 58.25 -46.046875 C 58.25 -42.773438 57.238281 -39.789062 55.21875 -37.09375 C 53.195312 -34.394531 50.445312 -32.242188 46.96875 -30.640625 C 43.5 -29.035156 39.6875 -28.234375 35.53125 -28.234375 C 33.925781 -28.234375 32.484375 -28.335938 31.203125 -28.546875 C 29.929688 -28.753906 28.4375 -29.09375 26.71875 -29.5625 L 21.640625 -12.109375 C 20.804688 -9.078125 20.390625 -7.03125 20.390625 -5.96875 C 20.390625 -4.125 21.039062 -2.9375 22.34375 -2.40625 C 23.65625 -1.875 25.289062 -1.609375 27.25 -1.609375 L 26.8125 0 L 0.4375 0 L 0.984375 -1.609375 C 3.054688 -1.609375 4.703125 -1.8125 5.921875 -2.21875 C 7.140625 -2.632812 8.160156 -3.476562 8.984375 -4.75 C 9.816406 -6.03125 10.625 -8.007812 11.40625 -10.6875 L 22.359375 -48 C 23.003906 -50.195312 23.328125 -51.976562 23.328125 -53.34375 C 23.328125 -56.550781 21.3125 -58.15625 17.28125 -58.15625 L 16.203125 -58.15625 L 16.75 -59.671875 L 40.515625 -59.671875 C 45.265625 -59.671875 49.40625 -58.585938 52.9375 -56.421875 C 56.476562 -54.253906 58.25 -50.796875 58.25 -46.046875 Z M 34.28125 -56.203125 L 27.4375 -32.328125 C 29.75 -31.734375 31.5 -31.4375 32.6875 -31.4375 C 35.476562 -31.4375 38 -32.132812 40.25 -33.53125 C 42.507812 -34.925781 44.289062 -36.835938 45.59375 -39.265625 C 46.90625 -41.703125 47.5625 -44.40625 47.5625 -47.375 C 47.5625 -50.34375 46.742188 -52.644531 45.109375 -54.28125 C 43.472656 -55.914062 41.171875 -56.734375 38.203125 -56.734375 C 37.015625 -56.734375 35.707031 -56.554688 34.28125 -56.203125 Z M 34.28125 -56.203125 "/></g></g></g><g fill="#b9a48d" fill-opacity="1"><g transform="translate(143.339687, 254.81248)"><g><path d="M 21.546875 -40.515625 L 16.390625 -19.234375 L 16.5625 -19.0625 C 22.914062 -33.363281 28.113281 -40.515625 32.15625 -40.515625 C 33.164062 -40.515625 33.976562 -40.160156 34.59375 -39.453125 C 35.21875 -38.742188 35.53125 -37.734375 35.53125 -36.421875 C 35.53125 -34.222656 35.054688 -32.335938 34.109375 -30.765625 C 33.160156 -29.191406 31.972656 -28.40625 30.546875 -28.40625 C 29.835938 -28.40625 29.316406 -28.628906 28.984375 -29.078125 C 28.660156 -29.523438 28.320312 -30.191406 27.96875 -31.078125 C 27.726562 -32.085938 27.398438 -32.59375 26.984375 -32.59375 C 26.210938 -32.59375 24.890625 -30.941406 23.015625 -27.640625 C 21.148438 -24.347656 19.3125 -20.640625 17.5 -16.515625 C 15.6875 -12.390625 14.570312 -9.46875 14.15625 -7.75 L 12.296875 0 L 3.46875 0 L 10.859375 -30.375 C 11.335938 -32.445312 11.578125 -33.722656 11.578125 -34.203125 C 11.578125 -34.910156 11.335938 -35.472656 10.859375 -35.890625 C 10.390625 -36.304688 9.738281 -36.515625 8.90625 -36.515625 C 8.664062 -36.515625 7.742188 -36.425781 6.140625 -36.25 L 6.140625 -37.84375 L 20.3125 -40.515625 Z M 21.546875 -40.515625 "/></g></g></g><g fill="#b9a48d" fill-opacity="1"><g transform="translate(173.977212, 254.81248)"><g><path d="M 30.546875 -40.515625 C 33.222656 -40.515625 35.4375 -39.816406 37.1875 -38.421875 C 38.9375 -37.035156 39.8125 -35.300781 39.8125 -33.21875 C 39.8125 -30.601562 38.769531 -28.148438 36.6875 -25.859375 C 34.613281 -23.578125 31.628906 -21.664062 27.734375 -20.125 C 23.847656 -18.582031 19.351562 -17.601562 14.25 -17.1875 C 14.1875 -16.832031 14.125 -16.253906 14.0625 -15.453125 C 14.007812 -14.648438 13.953125 -13.800781 13.890625 -12.90625 C 13.890625 -10.476562 14.628906 -8.375 16.109375 -6.59375 C 17.597656 -4.8125 19.59375 -3.921875 22.09375 -3.921875 C 24.050781 -3.921875 25.875 -4.320312 27.5625 -5.125 C 29.257812 -5.925781 31.320312 -7.363281 33.75 -9.4375 L 35.09375 -7.84375 C 28.613281 -1.90625 22.40625 1.0625 16.46875 1.0625 C 12.789062 1.0625 9.804688 -0.109375 7.515625 -2.453125 C 5.234375 -4.796875 4.09375 -7.867188 4.09375 -11.671875 C 4.09375 -16.242188 5.398438 -20.769531 8.015625 -25.25 C 10.628906 -29.726562 13.984375 -33.390625 18.078125 -36.234375 C 22.171875 -39.085938 26.328125 -40.515625 30.546875 -40.515625 Z M 14.6875 -19.421875 C 18.019531 -19.648438 20.988281 -20.535156 23.59375 -22.078125 C 26.207031 -23.628906 28.253906 -25.503906 29.734375 -27.703125 C 31.222656 -29.898438 31.96875 -32.09375 31.96875 -34.28125 C 31.96875 -35.351562 31.640625 -36.257812 30.984375 -37 C 30.335938 -37.75 29.476562 -38.125 28.40625 -38.125 C 25.613281 -38.125 22.910156 -36.222656 20.296875 -32.421875 C 17.691406 -28.617188 15.820312 -24.285156 14.6875 -19.421875 Z M 14.6875 -19.421875 "/></g></g></g><g fill="#b9a48d" fill-opacity="1"><g transform="translate(212.986616, 254.81248)"><g><path d="M 24.765625 -50.859375 L 26.625 -50.859375 L 23.515625 -39.453125 L 29.828125 -39.453125 L 28.859375 -36.25 L 22.53125 -36.25 L 14.25 -7.5625 C 13.945312 -6.375 13.796875 -5.578125 13.796875 -5.171875 C 13.796875 -4.867188 13.882812 -4.597656 14.0625 -4.359375 C 14.25 -4.117188 14.519531 -4 14.875 -4 C 15.644531 -4 16.503906 -4.429688 17.453125 -5.296875 C 18.398438 -6.160156 19.851562 -7.660156 21.8125 -9.796875 L 23.25 -8.90625 C 20.8125 -5.519531 18.492188 -3.007812 16.296875 -1.375 C 14.097656 0.25 11.875 1.0625 9.625 1.0625 C 8.195312 1.0625 7.003906 0.648438 6.046875 -0.171875 C 5.097656 -1.003906 4.625 -2.253906 4.625 -3.921875 C 4.625 -4.566406 4.710938 -5.273438 4.890625 -6.046875 C 5.078125 -6.828125 5.269531 -7.570312 5.46875 -8.28125 C 5.675781 -8.988281 5.84375 -9.582031 5.96875 -10.0625 L 13.53125 -36.25 L 6.953125 -36.25 L 7.5625 -38.296875 C 11.1875 -39.003906 14.394531 -40.382812 17.1875 -42.4375 C 19.976562 -44.488281 22.503906 -47.296875 24.765625 -50.859375 Z M 24.765625 -50.859375 "/></g></g></g><g fill="#b9a48d" fill-opacity="1"><g transform="translate(238.99289, 254.81248)"><g><path d="M 24.765625 -50.859375 L 26.625 -50.859375 L 23.515625 -39.453125 L 29.828125 -39.453125 L 28.859375 -36.25 L 22.53125 -36.25 L 14.25 -7.5625 C 13.945312 -6.375 13.796875 -5.578125 13.796875 -5.171875 C 13.796875 -4.867188 13.882812 -4.597656 14.0625 -4.359375 C 14.25 -4.117188 14.519531 -4 14.875 -4 C 15.644531 -4 16.503906 -4.429688 17.453125 -5.296875 C 18.398438 -6.160156 19.851562 -7.660156 21.8125 -9.796875 L 23.25 -8.90625 C 20.8125 -5.519531 18.492188 -3.007812 16.296875 -1.375 C 14.097656 0.25 11.875 1.0625 9.625 1.0625 C 8.195312 1.0625 7.003906 0.648438 6.046875 -0.171875 C 5.097656 -1.003906 4.625 -2.253906 4.625 -3.921875 C 4.625 -4.566406 4.710938 -5.273438 4.890625 -6.046875 C 5.078125 -6.828125 5.269531 -7.570312 5.46875 -8.28125 C 5.675781 -8.988281 5.84375 -9.582031 5.96875 -10.0625 L 13.53125 -36.25 L 6.953125 -36.25 L 7.5625 -38.296875 C 11.1875 -39.003906 14.394531 -40.382812 17.1875 -42.4375 C 19.976562 -44.488281 22.503906 -47.296875 24.765625 -50.859375 Z M 24.765625 -50.859375 "/></g></g></g><g fill="#b9a48d" fill-opacity="1"><g transform="translate(264.999163, 254.81248)"><g><path d="M 19.953125 -31.53125 L 21.109375 -7.5625 L 21.28125 -7.5625 L 26.8125 -15.140625 C 28.707031 -17.691406 30.515625 -20.492188 32.234375 -23.546875 C 33.960938 -26.609375 34.828125 -28.613281 34.828125 -29.5625 C 34.828125 -29.976562 34.675781 -30.320312 34.375 -30.59375 C 34.082031 -30.863281 33.609375 -31.175781 32.953125 -31.53125 C 31.941406 -32 31.164062 -32.53125 30.625 -33.125 C 30.09375 -33.71875 29.828125 -34.609375 29.828125 -35.796875 C 29.828125 -37.109375 30.210938 -38.222656 30.984375 -39.140625 C 31.765625 -40.054688 32.804688 -40.515625 34.109375 -40.515625 C 35.597656 -40.515625 36.832031 -39.9375 37.8125 -38.78125 C 38.789062 -37.625 39.28125 -36.15625 39.28125 -34.375 C 39.28125 -32.300781 38.625 -29.804688 37.3125 -26.890625 C 36.070312 -24.097656 34.203125 -20.90625 31.703125 -17.3125 C 29.210938 -13.726562 26.71875 -10.390625 24.21875 -7.296875 C 22.382812 -5.046875 21.195312 -3.535156 20.65625 -2.765625 C 16.445312 2.523438 13.125 6.578125 10.6875 9.390625 C 8.25 12.210938 5.90625 14.484375 3.65625 16.203125 C 2.582031 17.035156 1.570312 17.660156 0.625 18.078125 C -0.320312 18.492188 -1.363281 18.703125 -2.5 18.703125 C -3.863281 18.703125 -4.945312 18.359375 -5.75 17.671875 C -6.550781 16.992188 -6.953125 16.117188 -6.953125 15.046875 C -6.953125 13.679688 -6.429688 12.476562 -5.390625 11.4375 C -4.347656 10.40625 -3.144531 9.890625 -1.78125 9.890625 C -0.945312 9.890625 -0.320312 10.09375 0.09375 10.5 C 0.507812 10.914062 0.894531 11.507812 1.25 12.28125 C 1.601562 13.0625 1.925781 13.453125 2.21875 13.453125 C 2.582031 13.453125 2.941406 13.316406 3.296875 13.046875 C 3.648438 12.773438 4.179688 12.285156 4.890625 11.578125 L 8.8125 7.5625 C 9.820312 6.5625 11.070312 5.078125 12.5625 3.109375 L 11.21875 -25.46875 C 11.039062 -28.5 10.625 -31.050781 9.96875 -33.125 C 9.320312 -35.207031 7.898438 -36.25 5.703125 -36.25 C 5.222656 -36.25 4.390625 -36.1875 3.203125 -36.0625 L 2.9375 -37.5 L 17.640625 -40.515625 C 18.410156 -39.148438 18.957031 -37.785156 19.28125 -36.421875 C 19.601562 -35.054688 19.828125 -33.425781 19.953125 -31.53125 Z M 19.953125 -31.53125 "/></g></g></g><g fill="#ffffff" fill-opacity="1"><g transform="translate(303.038077, 254.81248)"><g/></g></g><g fill="#ffffff" fill-opacity="1"><g transform="translate(326.194348, 254.81248)"><g><path d="M 39.546875 -14.078125 L 72.5 -59.671875 L 90.484375 -59.671875 L 89.953125 -58.15625 C 86.679688 -58.039062 84.289062 -57.460938 82.78125 -56.421875 C 81.269531 -55.378906 80.097656 -53.460938 79.265625 -50.671875 L 68.40625 -13.09375 C 67.445312 -9.59375 66.96875 -7.21875 66.96875 -5.96875 C 66.96875 -4.425781 67.472656 -3.3125 68.484375 -2.625 C 69.492188 -1.945312 71.039062 -1.609375 73.125 -1.609375 L 74.359375 -1.609375 L 73.921875 0 L 45.859375 0 L 46.3125 -1.609375 C 48.6875 -1.609375 50.484375 -1.785156 51.703125 -2.140625 C 52.921875 -2.492188 53.972656 -3.320312 54.859375 -4.625 C 55.753906 -5.9375 56.613281 -8.078125 57.4375 -11.046875 L 68.484375 -48.890625 L 68.3125 -49.078125 L 33.125 0 L 31.4375 0 L 25.734375 -49.078125 L 25.5625 -49.078125 L 15.765625 -14.78125 C 14.453125 -10.5625 13.796875 -7.679688 13.796875 -6.140625 C 13.796875 -4.535156 14.332031 -3.378906 15.40625 -2.671875 C 16.476562 -1.960938 18.140625 -1.609375 20.390625 -1.609375 L 19.859375 0 L 0.359375 0 L 0.796875 -1.609375 C 2.992188 -1.609375 4.742188 -1.90625 6.046875 -2.5 C 7.359375 -3.09375 8.414062 -4.070312 9.21875 -5.4375 C 10.019531 -6.800781 10.804688 -8.757812 11.578125 -11.3125 L 24.140625 -54.765625 C 22.953125 -56.140625 21.820312 -57.03125 20.75 -57.4375 C 19.675781 -57.851562 17.984375 -58.09375 15.671875 -58.15625 L 16.125 -59.671875 L 34.28125 -59.671875 Z M 39.546875 -14.078125 "/></g></g></g><g fill="#ffffff" fill-opacity="1"><g transform="translate(405.994406, 254.81248)"><g><path d="M 44.96875 -58.15625 L 42.65625 -58.15625 C 40.101562 -58.15625 38.097656 -57.488281 36.640625 -56.15625 C 35.191406 -54.820312 34.082031 -52.785156 33.3125 -50.046875 L 21.46875 -9.53125 C 21.050781 -8.101562 20.84375 -7.035156 20.84375 -6.328125 C 20.84375 -5.316406 21.210938 -4.554688 21.953125 -4.046875 C 22.691406 -3.546875 24.28125 -3.296875 26.71875 -3.296875 L 34.28125 -3.296875 C 38.320312 -3.296875 41.425781 -3.609375 43.59375 -4.234375 C 45.757812 -4.859375 47.703125 -6.070312 49.421875 -7.875 C 51.148438 -9.6875 53.257812 -12.613281 55.75 -16.65625 L 57.359375 -16.65625 L 51.484375 0 L 0.71875 0 L 1.15625 -1.609375 C 3.59375 -1.609375 5.414062 -1.890625 6.625 -2.453125 C 7.84375 -3.015625 8.820312 -4.050781 9.5625 -5.5625 C 10.3125 -7.082031 11.191406 -9.59375 12.203125 -13.09375 L 22.09375 -47.296875 C 22.5625 -48.898438 22.882812 -50.128906 23.0625 -50.984375 C 23.238281 -51.847656 23.328125 -52.632812 23.328125 -53.34375 C 23.328125 -54.945312 22.851562 -56.148438 21.90625 -56.953125 C 20.957031 -57.753906 19.207031 -58.15625 16.65625 -58.15625 L 17.09375 -59.671875 L 45.515625 -59.671875 Z M 44.96875 -58.15625 "/></g></g></g><g fill="#ffffff" fill-opacity="1"><g transform="translate(466.289761, 254.81248)"><g><path d="M 33.9375 -61.09375 C 35.945312 -61.09375 37.679688 -60.914062 39.140625 -60.5625 C 40.597656 -60.207031 42.1875 -59.671875 43.90625 -58.953125 C 44.800781 -58.660156 45.691406 -58.378906 46.578125 -58.109375 C 47.472656 -57.847656 48.273438 -57.71875 48.984375 -57.71875 C 50.054688 -57.71875 50.945312 -57.984375 51.65625 -58.515625 C 52.363281 -59.046875 52.988281 -59.90625 53.53125 -61.09375 L 55.125 -61.09375 L 50.671875 -41.40625 L 49.078125 -41.40625 L 49.15625 -44 C 49.15625 -46.613281 48.53125 -48.957031 47.28125 -51.03125 C 46.039062 -53.113281 44.335938 -54.734375 42.171875 -55.890625 C 40.003906 -57.046875 37.582031 -57.625 34.90625 -57.625 C 32 -57.625 29.59375 -56.804688 27.6875 -55.171875 C 25.789062 -53.535156 24.84375 -51.441406 24.84375 -48.890625 C 24.84375 -47.109375 25.363281 -45.503906 26.40625 -44.078125 C 27.445312 -42.660156 29.390625 -40.582031 32.234375 -37.84375 L 34.90625 -35.265625 L 36.6875 -33.578125 C 38.945312 -31.378906 40.757812 -29.476562 42.125 -27.875 C 43.488281 -26.269531 44.628906 -24.457031 45.546875 -22.4375 C 46.472656 -20.425781 46.9375 -18.234375 46.9375 -15.859375 C 46.9375 -12.585938 46.015625 -9.644531 44.171875 -7.03125 C 42.328125 -4.414062 39.816406 -2.367188 36.640625 -0.890625 C 33.472656 0.585938 29.898438 1.328125 25.921875 1.328125 C 23.242188 1.328125 21 1.0625 19.1875 0.53125 C 17.375 0 15.550781 -0.710938 13.71875 -1.609375 C 12.050781 -2.429688 10.800781 -2.84375 9.96875 -2.84375 C 8.957031 -2.84375 8.050781 -2.515625 7.25 -1.859375 C 6.457031 -1.210938 5.703125 -0.148438 4.984375 1.328125 L 3.46875 1.328125 L 8.109375 -20.921875 L 9.703125 -20.921875 C 9.523438 -19.265625 9.4375 -17.601562 9.4375 -15.9375 C 9.4375 -13.269531 10.132812 -10.878906 11.53125 -8.765625 C 12.925781 -6.660156 14.75 -5 17 -3.78125 C 19.257812 -2.5625 21.664062 -1.953125 24.21875 -1.953125 C 26.414062 -1.953125 28.445312 -2.457031 30.3125 -3.46875 C 32.1875 -4.476562 33.671875 -5.859375 34.765625 -7.609375 C 35.867188 -9.359375 36.421875 -11.242188 36.421875 -13.265625 C 36.421875 -15.523438 35.796875 -17.546875 34.546875 -19.328125 C 33.304688 -21.109375 31.257812 -23.421875 28.40625 -26.265625 L 26.359375 -28.40625 L 24.21875 -30.546875 C 22.144531 -32.679688 20.53125 -34.429688 19.375 -35.796875 C 18.21875 -37.160156 17.238281 -38.703125 16.4375 -40.421875 C 15.632812 -42.148438 15.234375 -43.992188 15.234375 -45.953125 C 15.234375 -48.859375 16.019531 -51.453125 17.59375 -53.734375 C 19.164062 -56.023438 21.375 -57.820312 24.21875 -59.125 C 27.070312 -60.4375 30.3125 -61.09375 33.9375 -61.09375 Z M 33.9375 -61.09375 "/></g></g></g></svg>