<svg xmlns="http://www.w3.org/2000/svg" xmlns:xlink="http://www.w3.org/1999/xlink" width="808" zoomAndPan="magnify" viewBox="0 0 606 473.999983" height="632" preserveAspectRatio="xMidYMid meet" version="1.0"><defs><g/><clipPath id="4e2bef0a56"><rect x="0" width="375" y="0" height="97"/></clipPath></defs><rect x="-60.6" width="727.2" fill="#ffffff" y="-47.399998" height="568.79998" fill-opacity="1"/><rect x="-60.6" width="727.2" fill="#2a2a2a" y="-47.399998" height="568.79998" fill-opacity="1"/><g transform="matrix(1, 0, 0, 1, 116, 193)"><g clip-path="url(#4e2bef0a56)"><g fill="#aa94ff" fill-opacity="1"><g transform="translate(0.596782, 72.028229)"><g><path d="M 17.5625 -56.078125 C 21.78125 -57.191406 25.65625 -56.9375 29.1875 -55.3125 C 31.570312 -54.15625 33.425781 -52.566406 34.75 -50.546875 C 36.082031 -48.523438 36.613281 -46.257812 36.34375 -43.75 C 36.070312 -41.25 35.25 -39.394531 33.875 -38.1875 C 32.5 -36.988281 31.375 -36.054688 30.5 -35.390625 C 29.625 -34.722656 28.796875 -34.03125 28.015625 -33.3125 C 26.472656 -31.863281 26.351562 -30.566406 27.65625 -29.421875 C 31.726562 -25.890625 34.070312 -22.914062 34.6875 -20.5 C 35.3125 -18.082031 34.882812 -15.957031 33.40625 -14.125 C 31.351562 -11.582031 29.171875 -9.171875 26.859375 -6.890625 C 24.546875 -4.617188 22.257812 -2.320312 20 0 C 18.882812 1.082031 18.207031 1.019531 17.96875 -0.1875 C 17.570312 -1.84375 15.796875 -3.296875 12.640625 -4.546875 C 9.492188 -5.796875 6.171875 -6.992188 2.671875 -8.140625 C 2.035156 -8.390625 1.988281 -8.84375 2.53125 -9.5 C 3.34375 -10.34375 4.1875 -11.1875 5.0625 -12.03125 C 5.9375 -12.882812 6.8125 -13.71875 7.6875 -14.53125 C 9.050781 -15.789062 9.515625 -16.910156 9.078125 -17.890625 C 8.640625 -18.878906 7.832031 -19.988281 6.65625 -21.21875 C 3.695312 -24.300781 2.269531 -27.179688 2.375 -29.859375 C 2.476562 -32.546875 3.453125 -34.914062 5.296875 -36.96875 C 7.015625 -38.875 8.953125 -40.617188 11.109375 -42.203125 C 13.265625 -43.785156 15.3125 -45.554688 17.25 -47.515625 C 17.488281 -47.734375 17.800781 -47.660156 18.1875 -47.296875 C 22.238281 -43.703125 25.613281 -41.890625 28.3125 -41.859375 C 31.007812 -41.828125 32.765625 -42.628906 33.578125 -44.265625 C 34.390625 -45.921875 34.3125 -47.644531 33.34375 -49.4375 C 32.382812 -51.238281 30.816406 -52.726562 28.640625 -53.90625 C 25.359375 -55.53125 21.753906 -55.679688 17.828125 -54.359375 C 17.046875 -54.054688 16.578125 -54.21875 16.421875 -54.84375 C 16.273438 -55.476562 16.65625 -55.890625 17.5625 -56.078125 Z M 10.3125 -15.4375 C 10.007812 -14.914062 10.101562 -14.519531 10.59375 -14.25 C 12.726562 -13.257812 14.867188 -12.28125 17.015625 -11.3125 C 19.160156 -10.34375 21.316406 -9.410156 23.484375 -8.515625 C 24.992188 -7.847656 26.503906 -8.707031 28.015625 -11.09375 C 29.890625 -14.070312 27.414062 -17.992188 20.59375 -22.859375 C 19.539062 -23.492188 18.242188 -23.191406 16.703125 -21.953125 Z M 16.5625 -24.84375 C 16.925781 -24.570312 17.257812 -24.585938 17.5625 -24.890625 L 25.984375 -33.125 C 26.253906 -33.425781 26.332031 -33.703125 26.21875 -33.953125 C 26.113281 -34.210938 25.882812 -34.359375 25.53125 -34.390625 C 23.8125 -34.578125 21.910156 -35.242188 19.828125 -36.390625 C 16.472656 -38.285156 14.28125 -39.566406 13.25 -40.234375 C 12.226562 -40.898438 10.921875 -40.296875 9.328125 -38.421875 C 7.304688 -36.035156 7.296875 -33.753906 9.296875 -31.578125 C 11.304688 -29.410156 13.726562 -27.164062 16.5625 -24.84375 Z M 16.5625 -24.84375 "/></g></g><g transform="translate(39.293389, 72.028229)"><g><path d="M 17.328125 -36.890625 L 17.28125 -11.546875 C 17.28125 -10.609375 17.507812 -9.988281 17.96875 -9.6875 L 21.21875 -7.828125 C 21.851562 -7.285156 22.910156 -8.007812 24.390625 -10 C 24.660156 -10.394531 25.03125 -10.457031 25.5 -10.1875 C 25.96875 -9.914062 25.992188 -9.550781 25.578125 -9.09375 C 22.347656 -5.5625 19.914062 -2.09375 18.28125 1.3125 C 17.769531 1.945312 17.210938 1.945312 16.609375 1.3125 C 14.921875 -0.675781 13.351562 -2.164062 11.90625 -3.15625 C 10.457031 -4.15625 8.300781 -5.003906 5.4375 -5.703125 C 4.945312 -5.796875 4.6875 -6.019531 4.65625 -6.375 C 4.625 -6.738281 4.804688 -7 5.203125 -7.15625 C 7.222656 -7.632812 8.21875 -9.367188 8.1875 -12.359375 L 8.140625 -36.84375 C 8.171875 -37.382812 7.945312 -37.65625 7.46875 -37.65625 L 2.125 -37.65625 C 1.707031 -37.65625 1.4375 -37.820312 1.3125 -38.15625 C 1.1875 -38.488281 1.320312 -38.773438 1.71875 -39.015625 C 5.34375 -41.578125 9.03125 -44.664062 12.78125 -48.28125 C 16.539062 -51.90625 19.957031 -55.347656 23.03125 -58.609375 C 23.425781 -59.023438 23.8125 -59.101562 24.1875 -58.84375 C 24.5625 -58.59375 24.570312 -58.226562 24.21875 -57.75 C 22.820312 -56.03125 21.421875 -53.796875 20.015625 -51.046875 C 18.617188 -48.304688 17.769531 -45.800781 17.46875 -43.53125 C 17.40625 -43.226562 17.421875 -43.003906 17.515625 -42.859375 C 17.691406 -42.679688 17.898438 -42.59375 18.140625 -42.59375 L 25.984375 -42.59375 C 26.191406 -42.59375 26.367188 -42.515625 26.515625 -42.359375 C 26.671875 -42.148438 26.75 -41.953125 26.75 -41.765625 L 26.5625 -38.375 C 26.5 -37.894531 26.242188 -37.65625 25.796875 -37.65625 L 17.96875 -37.65625 C 17.539062 -37.65625 17.328125 -37.398438 17.328125 -36.890625 Z M 17.328125 -36.890625 "/></g></g><g transform="translate(67.942455, 72.028229)"><g><path d="M 28.609375 -11.171875 L 28.640625 -30.046875 C 28.640625 -35.117188 27.722656 -37.925781 25.890625 -38.46875 C 25.679688 -38.613281 25.578125 -38.800781 25.578125 -39.03125 C 25.578125 -39.257812 25.679688 -39.460938 25.890625 -39.640625 C 28.578125 -41.578125 30.796875 -44.296875 32.546875 -47.796875 C 32.660156 -48.066406 32.867188 -48.203125 33.171875 -48.203125 C 33.472656 -48.203125 33.703125 -48.066406 33.859375 -47.796875 C 35.453125 -44.328125 37.742188 -41.625 40.734375 -39.6875 C 40.941406 -39.507812 41.046875 -39.289062 41.046875 -39.03125 C 41.046875 -38.78125 40.925781 -38.59375 40.6875 -38.46875 C 38.695312 -37.894531 37.734375 -35.085938 37.796875 -30.046875 L 37.796875 -14.125 C 37.796875 -11.007812 38.367188 -9.109375 39.515625 -8.421875 C 40.773438 -7.578125 41.84375 -7.90625 42.71875 -9.40625 C 43.050781 -9.988281 43.4375 -10.117188 43.875 -9.796875 C 44.3125 -9.484375 44.304688 -8.960938 43.859375 -8.234375 C 42.953125 -6.847656 42.097656 -5.429688 41.296875 -3.984375 C 40.492188 -2.535156 39.6875 -1.117188 38.875 0.265625 C 38.363281 1.140625 37.65625 1.304688 36.75 0.765625 C 32.25 -1.367188 29.609375 -4.082031 28.828125 -7.375 C 28.765625 -7.613281 28.582031 -7.78125 28.28125 -7.875 C 27.976562 -7.96875 27.769531 -7.921875 27.65625 -7.734375 C 25.9375 -6.347656 24.210938 -4.894531 22.484375 -3.375 C 20.765625 -1.851562 19.59375 -0.457031 18.96875 0.8125 C 18.445312 1.539062 17.882812 1.523438 17.28125 0.765625 C 15.625 -1.160156 14.003906 -2.632812 12.421875 -3.65625 C 10.835938 -4.6875 8.734375 -5.519531 6.109375 -6.15625 C 5.535156 -6.363281 5.265625 -6.617188 5.296875 -6.921875 C 5.328125 -7.222656 5.523438 -7.453125 5.890625 -7.609375 C 6.640625 -7.878906 7.320312 -8.382812 7.9375 -9.125 C 8.5625 -9.863281 8.875 -11.09375 8.875 -12.8125 L 8.875 -31.953125 C 8.875 -35.023438 8.300781 -36.910156 7.15625 -37.609375 C 5.789062 -38.421875 4.703125 -38.085938 3.890625 -36.609375 C 3.554688 -36.035156 3.175781 -35.914062 2.75 -36.25 C 2.332031 -36.582031 2.351562 -37.109375 2.8125 -37.828125 C 3.6875 -39.191406 4.519531 -40.597656 5.3125 -42.046875 C 6.113281 -43.492188 6.9375 -44.941406 7.78125 -46.390625 C 8.289062 -47.296875 8.972656 -47.460938 9.828125 -46.890625 L 9.859375 -46.890625 C 15.328125 -44.023438 18.0625 -40.101562 18.0625 -35.125 L 17.96875 -11.953125 C 17.96875 -11.078125 18.191406 -10.488281 18.640625 -10.1875 L 22.53125 -6.96875 C 22.832031 -6.695312 23.179688 -6.664062 23.578125 -6.875 C 26.023438 -8.8125 27.609375 -10.050781 28.328125 -10.59375 C 28.515625 -10.707031 28.609375 -10.898438 28.609375 -11.171875 Z M 28.609375 -11.171875 "/></g></g><g transform="translate(114.649939, 72.028229)"><g><path d="M 11.671875 -63.046875 C 9.285156 -62.378906 8.125 -60.972656 8.1875 -58.828125 C 8.21875 -57.472656 8.992188 -56.210938 10.515625 -55.046875 C 12.046875 -53.890625 13.835938 -53.113281 15.890625 -52.71875 C 15.921875 -52.71875 15.945312 -52.707031 15.96875 -52.6875 C 22.3125 -50.332031 27.828125 -47.253906 32.515625 -43.453125 C 37.210938 -39.648438 39.875 -34.128906 40.5 -26.890625 L 40.5 -26.75 C 39.875 -21.3125 38.5625 -16.78125 36.5625 -13.15625 C 34.570312 -9.539062 32.222656 -6.785156 29.515625 -4.890625 L 29.46875 -4.796875 C 28.195312 -3.710938 26.703125 -2.75 24.984375 -1.90625 C 23.265625 -1.0625 21.738281 -0.1875 20.40625 0.71875 C 19.5625 1.289062 19.019531 1.289062 18.78125 0.71875 C 17.09375 -3.289062 12.429688 -6.351562 4.796875 -8.46875 C 4.347656 -8.550781 4.109375 -8.773438 4.078125 -9.140625 C 4.046875 -9.503906 4.210938 -9.757812 4.578125 -9.90625 C 6.472656 -10.632812 7.421875 -12.644531 7.421875 -15.9375 L 7.328125 -34.765625 C 7.328125 -35.816406 7.8125 -36.3125 8.78125 -36.25 C 11.800781 -35.851562 14.816406 -36.878906 17.828125 -39.328125 C 18.015625 -39.453125 18.109375 -39.675781 18.109375 -40 C 18.046875 -40.25 17.894531 -40.429688 17.65625 -40.546875 C 16.507812 -41.035156 15.359375 -41.507812 14.203125 -41.96875 C 13.054688 -42.4375 11.941406 -42.945312 10.859375 -43.5 C 8.054688 -44.757812 5.984375 -46.398438 4.640625 -48.421875 C 3.296875 -50.441406 2.503906 -52.445312 2.265625 -54.4375 L 2.265625 -54.671875 C 3.015625 -60.429688 5.910156 -63.644531 10.953125 -64.3125 C 11.734375 -64.425781 12.160156 -64.269531 12.234375 -63.84375 C 12.316406 -63.425781 12.128906 -63.160156 11.671875 -63.046875 Z M 20.5 -39.28125 C 20.226562 -39.40625 19.972656 -39.375 19.734375 -39.1875 L 17.609375 -37.515625 C 17.003906 -37.066406 16.703125 -36.523438 16.703125 -35.890625 L 16.875 -13.53125 C 16.875 -13.082031 17.054688 -12.765625 17.421875 -12.578125 L 27.203125 -6.828125 C 27.984375 -6.347656 28.707031 -6.53125 29.375 -7.375 C 32.09375 -11.207031 33.140625 -16.296875 32.515625 -22.640625 C 31.898438 -28.992188 29.285156 -33.800781 24.671875 -37.0625 C 23.816406 -37.632812 22.425781 -38.375 20.5 -39.28125 Z M 20.5 -39.28125 "/></g></g><g transform="translate(156.740984, 72.028229)"><g><path d="M 7.46875 -10.640625 L 7.15625 -35.4375 C 7.15625 -36.007812 7.0625 -36.476562 6.875 -36.84375 C 6.15625 -38.019531 5.539062 -38.304688 5.03125 -37.703125 L 3.21875 -35.84375 C 2.726562 -35.300781 2.265625 -35.238281 1.828125 -35.65625 C 1.390625 -36.082031 1.457031 -36.671875 2.03125 -37.421875 C 3.363281 -39.085938 4.554688 -40.75 5.609375 -42.40625 C 6.671875 -44.0625 7.757812 -45.707031 8.875 -47.34375 C 9.351562 -47.914062 9.910156 -47.898438 10.546875 -47.296875 C 11.816406 -45.753906 13.050781 -44.398438 14.25 -43.234375 C 15.457031 -42.078125 17.179688 -40.851562 19.421875 -39.5625 C 20.046875 -39.3125 20.320312 -39.019531 20.25 -38.6875 C 20.175781 -38.363281 19.972656 -38.1875 19.640625 -38.15625 C 18.859375 -37.851562 18.164062 -37.332031 17.5625 -36.59375 C 16.957031 -35.851562 16.65625 -34.625 16.65625 -32.90625 L 16.65625 -13.765625 C 16.65625 -10.679688 17.226562 -8.789062 18.375 -8.09375 C 19.695312 -7.3125 20.785156 -7.644531 21.640625 -9.09375 C 21.929688 -9.664062 22.296875 -9.789062 22.734375 -9.46875 C 23.171875 -9.15625 23.164062 -8.640625 22.71875 -7.921875 C 21.8125 -6.503906 20.96875 -5.078125 20.1875 -3.640625 C 19.40625 -2.210938 18.601562 -0.785156 17.78125 0.640625 C 17.207031 1.484375 16.5 1.660156 15.65625 1.171875 C 12.945312 -0.117188 10.90625 -1.695312 9.53125 -3.5625 C 8.15625 -5.4375 7.46875 -7.796875 7.46875 -10.640625 Z M 14.03125 -64.359375 C 17.375 -64.359375 18.894531 -62.742188 18.59375 -59.515625 C 18.414062 -57.878906 17.398438 -56.238281 15.546875 -54.59375 C 13.691406 -52.957031 12.222656 -52.15625 11.140625 -52.1875 C 10.046875 -52.1875 9.210938 -53.046875 8.640625 -54.765625 C 8.066406 -56.484375 7.84375 -58.066406 7.96875 -59.515625 C 8.050781 -60.898438 8.71875 -62.050781 9.96875 -62.96875 C 11.226562 -63.894531 12.582031 -64.359375 14.03125 -64.359375 Z M 14.03125 -64.359375 "/></g></g><g transform="translate(182.040871, 72.028229)"><g><path d="M 17.5625 0.8125 C 17.101562 1.570312 16.546875 1.570312 15.890625 0.8125 C 12.566406 -3.320312 7.523438 -6.429688 0.765625 -8.515625 C 0.222656 -8.660156 -0.0351562 -8.898438 -0.015625 -9.234375 C -0.00390625 -9.566406 0.164062 -9.804688 0.5 -9.953125 C 2.425781 -10.617188 3.390625 -12.625 3.390625 -15.96875 L 3.265625 -39.0625 C 3.265625 -39.394531 3.234375 -39.65625 3.171875 -39.84375 C 3.109375 -40.039062 3.128906 -40.222656 3.234375 -40.390625 C 3.335938 -40.554688 3.539062 -40.65625 3.84375 -40.6875 C 11.875 -41.351562 19.007812 -43.539062 25.25 -47.25 C 25.519531 -47.394531 25.769531 -47.4375 26 -47.375 C 26.226562 -47.320312 26.359375 -47.113281 26.390625 -46.75 C 26.898438 -43.488281 28.5 -40.289062 31.1875 -37.15625 C 32.664062 -35.34375 33.894531 -32.867188 34.875 -29.734375 C 35.851562 -26.597656 36.238281 -23.988281 36.03125 -21.90625 C 35.726562 -19.457031 34.925781 -17.257812 33.625 -15.3125 C 32.332031 -13.375 30.851562 -11.585938 29.1875 -9.953125 C 27.226562 -8.023438 25.117188 -6.394531 22.859375 -5.0625 C 20.597656 -3.738281 18.832031 -1.78125 17.5625 0.8125 Z M 12.625 -39.640625 L 12.8125 -13.578125 C 12.8125 -13.117188 12.992188 -12.800781 13.359375 -12.625 L 21.359375 -7.65625 C 22.148438 -7.132812 22.875 -7.28125 23.53125 -8.09375 C 26.394531 -11.175781 27.691406 -14.875 27.421875 -19.1875 C 27.367188 -21.875 26.847656 -24.269531 25.859375 -26.375 C 24.878906 -28.488281 23.664062 -30.363281 22.21875 -32 C 19.863281 -34.382812 18.070312 -37.34375 16.84375 -40.875 C 16.78125 -41.019531 16.640625 -41.144531 16.421875 -41.25 C 16.210938 -41.351562 16.019531 -41.363281 15.84375 -41.28125 C 14.9375 -40.945312 14.03125 -40.660156 13.125 -40.421875 C 12.789062 -40.296875 12.625 -40.035156 12.625 -39.640625 Z M 12.625 -39.640625 "/></g></g><g transform="translate(220.375405, 72.028229)"><g><path d="M 22.5 -35.296875 C 23.488281 -35.660156 24.117188 -35.53125 24.390625 -34.90625 C 24.660156 -34.289062 24.359375 -33.847656 23.484375 -33.578125 C 18.421875 -31.859375 14.0625 -31.957031 10.40625 -33.875 C 6.757812 -35.789062 4.382812 -39.359375 3.28125 -44.578125 C 2.175781 -49.796875 3.390625 -54.644531 6.921875 -59.125 C 10.453125 -63.601562 15.128906 -65.84375 20.953125 -65.84375 C 26.835938 -65.84375 31.28125 -64.445312 34.28125 -61.65625 C 37.28125 -58.875 39.398438 -55.1875 40.640625 -50.59375 C 40.734375 -50.238281 40.957031 -50.0625 41.3125 -50.0625 C 41.675781 -50.0625 41.921875 -50.238281 42.046875 -50.59375 C 43.492188 -56.476562 45.25 -60.789062 47.3125 -63.53125 C 49.382812 -66.28125 52.078125 -66.460938 55.390625 -64.078125 C 58.472656 -61.816406 60.875 -61.710938 62.59375 -63.765625 C 62.957031 -64.222656 63.394531 -64.335938 63.90625 -64.109375 C 64.414062 -63.878906 64.535156 -63.359375 64.265625 -62.546875 C 62.546875 -57.390625 60.582031 -54.210938 58.375 -53.015625 C 56.175781 -51.828125 53.960938 -52.109375 51.734375 -53.859375 C 49.859375 -55.242188 48.304688 -55.566406 47.078125 -54.828125 C 45.859375 -54.085938 44.878906 -52.878906 44.140625 -51.203125 C 43.410156 -49.535156 42.894531 -47.6875 42.59375 -45.65625 C 42.289062 -43.632812 42.140625 -42.050781 42.140625 -40.90625 C 42.140625 -40.695312 42.195312 -40.519531 42.3125 -40.375 C 42.46875 -40.21875 42.632812 -40.140625 42.8125 -40.140625 L 56.84375 -40.140625 C 57.65625 -40.140625 57.835938 -39.71875 57.390625 -38.875 L 53.765625 -32.71875 C 53.316406 -31.875 52.65625 -31.453125 51.78125 -31.453125 L 43.171875 -31.453125 C 42.992188 -31.453125 42.8125 -31.378906 42.625 -31.234375 C 42.445312 -31.046875 42.390625 -30.863281 42.453125 -30.6875 C 43.171875 -21.175781 45.492188 -14.992188 49.421875 -12.140625 C 53.347656 -9.296875 57.117188 -8.914062 60.734375 -11 C 61.304688 -11.363281 61.785156 -11.398438 62.171875 -11.109375 C 62.566406 -10.828125 62.613281 -10.472656 62.3125 -10.046875 C 60.75 -7.960938 59.03125 -5.941406 57.15625 -3.984375 C 55.707031 -2.472656 54.363281 -1.082031 53.125 0.1875 C 52.707031 0.601562 52.160156 0.832031 51.484375 0.875 C 50.804688 0.925781 50.164062 0.847656 49.5625 0.640625 C 41.351562 -1.628906 36.160156 -7.484375 33.984375 -16.921875 C 33.898438 -17.410156 33.664062 -17.65625 33.28125 -17.65625 C 32.90625 -17.65625 32.660156 -17.410156 32.546875 -16.921875 C 29.921875 -6.640625 26.882812 -1.019531 23.4375 -0.0625 C 20 0.882812 17.195312 0.539062 15.03125 -1.09375 C 11.257812 -3.863281 8.707031 -4.191406 7.375 -2.078125 C 7.101562 -1.628906 6.738281 -1.53125 6.28125 -1.78125 C 5.832031 -2.039062 5.789062 -2.578125 6.15625 -3.390625 C 9.175781 -9.878906 11.882812 -13.34375 14.28125 -13.78125 C 16.675781 -14.21875 18.914062 -13.488281 21 -11.59375 C 23.46875 -9.257812 25.457031 -8.734375 26.96875 -10.015625 C 28.476562 -11.304688 29.65625 -13.285156 30.5 -15.953125 C 31.34375 -18.617188 31.914062 -21.445312 32.21875 -24.4375 C 32.519531 -27.425781 32.703125 -29.507812 32.765625 -30.6875 C 32.796875 -30.894531 32.734375 -31.078125 32.578125 -31.234375 C 32.429688 -31.378906 32.269531 -31.453125 32.09375 -31.453125 L 26.609375 -31.453125 C 25.460938 -31.453125 25.28125 -31.875 26.0625 -32.71875 L 31.640625 -38.875 C 31.878906 -39.144531 32.222656 -39.445312 32.671875 -39.78125 C 32.890625 -39.90625 33 -40.128906 33 -40.453125 C 32.632812 -45.398438 31.332031 -49.359375 29.09375 -52.328125 C 26.863281 -55.304688 23.894531 -56.796875 20.1875 -56.796875 C 15.78125 -56.765625 12.351562 -55.578125 9.90625 -53.234375 C 7.46875 -50.898438 6.300781 -48.050781 6.40625 -44.6875 C 6.507812 -41.320312 8.082031 -38.492188 11.125 -36.203125 C 14.175781 -33.910156 17.96875 -33.609375 22.5 -35.296875 Z M 22.5 -35.296875 "/></g></g><g transform="translate(287.177969, 72.028229)"><g><path d="M 10.234375 -6.421875 C 9.710938 -6.003906 9.285156 -5.984375 8.953125 -6.359375 C 8.628906 -6.734375 8.722656 -7.191406 9.234375 -7.734375 C 13.972656 -12.742188 17.660156 -15.164062 20.296875 -15 C 22.941406 -14.832031 25.09375 -13.664062 26.75 -11.5 C 28.832031 -8.6875 30.617188 -7.09375 32.109375 -6.71875 C 33.597656 -6.34375 34.960938 -6.894531 36.203125 -8.375 C 38.410156 -11.03125 39.800781 -14.210938 40.375 -17.921875 C 40.945312 -21.628906 41.140625 -25.597656 40.953125 -29.828125 C 40.742188 -34.890625 39.632812 -39.53125 37.625 -43.75 C 35.625 -47.976562 32.207031 -51.210938 27.375 -53.453125 C 21.613281 -56.078125 16.582031 -56.113281 12.28125 -53.5625 C 7.988281 -51.007812 5.867188 -47.125 5.921875 -41.90625 C 5.921875 -38.3125 7.007812 -35.234375 9.1875 -32.671875 C 11.363281 -30.109375 14.410156 -28.585938 18.328125 -28.109375 C 22.398438 -27.585938 26.140625 -28.535156 29.546875 -30.953125 C 29.972656 -31.222656 30.304688 -31.1875 30.546875 -30.84375 C 30.785156 -30.5 30.617188 -30.054688 30.046875 -29.515625 C 26.640625 -26.828125 22.550781 -25.632812 17.78125 -25.9375 C 13.195312 -26.238281 9.476562 -27.835938 6.625 -30.734375 C 3.78125 -33.628906 2.296875 -37.429688 2.171875 -42.140625 C 2.296875 -50.703125 5.5 -56.988281 11.78125 -61 C 18.070312 -65.019531 24.8125 -66.003906 32 -63.953125 C 37.28125 -62.378906 41.550781 -58.800781 44.8125 -53.21875 C 44.988281 -52.882812 45.21875 -52.71875 45.5 -52.71875 C 45.789062 -52.71875 46.007812 -52.945312 46.15625 -53.40625 C 47.394531 -57.507812 49.945312 -60.75 53.8125 -63.125 C 57.675781 -65.507812 61.867188 -65.554688 66.390625 -63.265625 C 70.921875 -60.972656 73.984375 -57.144531 75.578125 -51.78125 C 76.960938 -47.613281 78.304688 -45.800781 79.609375 -46.34375 C 80.242188 -46.582031 80.71875 -46.46875 81.03125 -46 C 81.351562 -45.53125 81.101562 -45.054688 80.28125 -44.578125 L 64.484375 -35.296875 C 64.242188 -35.179688 64.125 -35.003906 64.125 -34.765625 C 64.070312 -34.515625 64.132812 -34.300781 64.3125 -34.125 C 68.320312 -30.5625 70.75 -26.082031 71.59375 -20.6875 C 72.925781 -15.375 74.453125 -11.613281 76.171875 -9.40625 C 77.890625 -7.207031 79.832031 -7.015625 82 -8.828125 C 82.601562 -9.304688 83.113281 -9.289062 83.53125 -8.78125 C 83.957031 -8.269531 83.796875 -7.726562 83.046875 -7.15625 C 81.117188 -5.757812 79.203125 -4.34375 77.296875 -2.90625 C 75.398438 -1.476562 73.5 -0.0859375 71.59375 1.265625 C 71.414062 1.421875 71.175781 1.453125 70.875 1.359375 C 65.71875 -0.484375 62.050781 -6.21875 59.875 -15.84375 C 59 -20.125 58.003906 -23.378906 56.890625 -25.609375 C 55.773438 -27.847656 54.207031 -28.722656 52.1875 -28.234375 C 51.425781 -28.023438 50.992188 -28.140625 50.890625 -28.578125 C 50.785156 -29.015625 51.082031 -29.429688 51.78125 -29.828125 L 68.75 -40.421875 C 68.925781 -40.535156 69.046875 -40.726562 69.109375 -41 C 69.109375 -41.15625 69.03125 -41.367188 68.875 -41.640625 C 67.457031 -42.898438 66.160156 -44.222656 64.984375 -45.609375 C 63.804688 -47.003906 63.023438 -48.609375 62.640625 -50.421875 C 61.910156 -53.679688 60.472656 -56.019531 58.328125 -57.4375 C 56.191406 -58.851562 54.007812 -58.972656 51.78125 -57.796875 C 49.601562 -56.648438 48.3125 -54.789062 47.90625 -52.21875 C 47.5 -49.65625 47.566406 -47.289062 48.109375 -45.125 C 49.429688 -39.78125 49.75 -34.242188 49.0625 -28.515625 C 48.488281 -24.109375 47.09375 -20.007812 44.875 -16.21875 C 42.65625 -12.4375 39.6875 -8.566406 35.96875 -4.609375 C 32.257812 -0.660156 28.835938 1.191406 25.703125 0.953125 C 22.566406 0.710938 19.988281 -0.734375 17.96875 -3.390625 C 16.28125 -5.628906 14.796875 -6.875 13.515625 -7.125 C 12.234375 -7.382812 11.140625 -7.148438 10.234375 -6.421875 Z M 10.234375 -6.421875 "/></g></g></g></g></g></svg>